<svg width="32" height="32" viewBox="0 0 32 32" fill="none" xmlns="http://www.w3.org/2000/svg">
<g id="Frame">
<path id="Vector" d="M2.66667 5.33332C2.66667 3.86056 3.86057 2.66666 5.33333 2.66666C6.80609 2.66666 8 3.86056 8 5.33332C8 6.80608 6.80609 7.99999 5.33333 7.99999C3.86057 7.99999 2.66667 6.80608 2.66667 5.33332Z" fill="white"/>
<path id="Vector_2" d="M2.66667 16C2.66667 14.5273 3.86057 13.3333 5.33333 13.3333C6.80609 13.3333 8 14.5273 8 16C8 17.4728 6.80609 18.6667 5.33333 18.6667C3.86057 18.6667 2.66667 17.4728 2.66667 16Z" fill="white"/>
<path id="Vector_3" d="M2.66667 26.6667C2.66667 25.1939 3.86057 24 5.33333 24C6.80609 24 8 25.1939 8 26.6667C8 28.1394 6.80609 29.3333 5.33333 29.3333C3.86057 29.3333 2.66667 28.1394 2.66667 26.6667Z" fill="white"/>
<path id="Vector_4" d="M13.3337 5.33317C13.3337 3.86041 14.5276 2.6665 16.0003 2.6665C17.4731 2.6665 18.667 3.86041 18.667 5.33317C18.667 6.80593 17.4731 7.99984 16.0003 7.99984C14.5276 7.99984 13.3337 6.80593 13.3337 5.33317Z" fill="white"/>
<path id="Vector_5" d="M13.3337 16.0002C13.3337 14.5274 14.5276 13.3335 16.0003 13.3335C17.4731 13.3335 18.667 14.5274 18.667 16.0002C18.667 17.4729 17.4731 18.6668 16.0003 18.6668C14.5276 18.6668 13.3337 17.4729 13.3337 16.0002Z" fill="white"/>
<path id="Vector_6" d="M13.3337 26.6667C13.3337 25.1939 14.5276 24 16.0003 24C17.4731 24 18.667 25.1939 18.667 26.6667C18.667 28.1394 17.4731 29.3333 16.0003 29.3333C14.5276 29.3333 13.3337 28.1394 13.3337 26.6667Z" fill="white"/>
<path id="Vector_7" d="M23.9997 5.33317C23.9997 3.86041 25.1936 2.6665 26.6663 2.6665C28.1391 2.6665 29.333 3.86041 29.333 5.33317C29.333 6.80593 28.1391 7.99984 26.6663 7.99984C25.1936 7.99984 23.9997 6.80593 23.9997 5.33317Z" fill="white"/>
<path id="Vector_8" d="M23.9997 16.0002C23.9997 14.5274 25.1936 13.3335 26.6663 13.3335C28.1391 13.3335 29.333 14.5274 29.333 16.0002C29.333 17.4729 28.1391 18.6668 26.6663 18.6668C25.1936 18.6668 23.9997 17.4729 23.9997 16.0002Z" fill="white"/>
<path id="Vector_9" d="M23.9997 26.6667C23.9997 25.1939 25.1936 24 26.6663 24C28.1391 24 29.333 25.1939 29.333 26.6667C29.333 28.1394 28.1391 29.3333 26.6663 29.3333C25.1936 29.3333 23.9997 28.1394 23.9997 26.6667Z" fill="white"/>
</g>
</svg>
