<svg width="21" height="24" viewBox="0 0 21 24" fill="none" xmlns="http://www.w3.org/2000/svg">
<g id="Group 104">
<path id="Vector" opacity="0.4" d="M5.41866 10.809C5.41866 11.5392 5.83119 12.2066 6.48427 12.5332L10.1842 14.3831V11.9377C10.1842 9.69123 10.1842 8.56792 10.8821 7.87003C11.58 7.17213 12.7033 7.17213 14.9497 7.17213H15.7077L11.4436 2.61457C9.81284 0.871522 8.99746 0 7.96369 0C6.93001 0 6.1146 0.871522 4.4838 2.61457L0.219727 7.17213H0.653188C2.89965 7.17216 4.02289 7.17218 4.72077 7.87008C5.41866 8.56797 5.41866 8.56252 5.41866 10.809Z" fill="#596380"/>
<path id="Vector_2" d="M15.1123 13.254C15.1123 12.4871 14.6737 11.7879 13.9833 11.4541L10.1845 9.61719V12.0626C10.1845 14.3091 10.3467 15.4325 9.64883 16.1303C8.95103 16.8282 7.82768 16.8282 5.58124 16.8282H4.82324L9.08733 21.3858C10.7181 23.1288 11.5335 24.0003 12.5672 24.0003C13.601 24.0003 14.4164 23.1288 16.0472 21.3858L20.3112 16.8282H19.8778C17.6313 16.8282 16.5081 16.8282 15.8102 16.1303C15.1123 15.4323 15.1123 15.5005 15.1123 13.254Z" fill="#596380"/>
</g>
</svg>
