<svg width="24" height="24" viewBox="0 0 24 24" fill="none" xmlns="http://www.w3.org/2000/svg">
<path opacity="0.2" fill-rule="evenodd" clip-rule="evenodd" d="M13.0141 3.49338L8 6.00045L8.00606 6.00449C8.46284 6.00045 8.95918 6.00045 9.5 6.00045H18C18.3649 6.00045 18.6944 6.00045 18.9929 6.00469L19 6.00045L18.003 4.67109C17.0454 3.39425 16.5665 2.75583 15.861 2.58927C15.1555 2.42272 14.4417 2.77961 13.0141 3.49338Z" fill="#596380"/>
<path d="M16 13.5C16 13.0353 16 12.803 16.0384 12.6098C16.1962 11.8164 16.8164 11.1962 17.6098 11.0384C17.803 11 18.0353 11 18.5 11H22V16H18.5C18.0353 16 17.803 16 17.6098 15.9616C16.8164 15.8038 16.1962 15.1836 16.0384 14.3902C16 14.197 16 13.9647 16 13.5Z" fill="#596380"/>
<path d="M16 13.5C16 13.0353 16 12.803 16.0384 12.6098C16.1962 11.8164 16.8164 11.1962 17.6098 11.0384C17.803 11 18.0353 11 18.5 11H22V16H18.5C18.0353 16 17.803 16 17.6098 15.9616C16.8164 15.8038 16.1962 15.1836 16.0384 14.3902C16 14.197 16 13.9647 16 13.5Z" fill="#596380"/>
<path opacity="0.4" fill-rule="evenodd" clip-rule="evenodd" d="M2.90796 7.46243C2 8.56878 2 10.2125 2 13.5C2 16.3434 2 17.9571 2.58747 19.0571L6.13588 15.5078L6.11004 15.4116C5.95169 14.8169 5.95241 14.1909 6.11213 13.5965C6.27185 13.0022 6.58495 12.4603 7.02004 12.0252C8.15825 10.8863 9.91365 10.6752 11.2801 11.4981L8.68358 14.0961L9.90217 15.3154C11.6389 13.5805 12.5116 12.7174 12.5159 12.7217C13.3211 14.086 13.1101 15.8425 11.9705 16.9813C11.0748 17.8775 9.78447 18.2107 8.58311 17.8904L8.48694 17.8646L5.48904 20.8642C6.47323 21 7.75507 21 9.5 21H18C19.8856 21 20.8284 21 21.4142 20.4142C22 19.8284 22 18.8856 22 17V10C22 8.11438 22 7.17157 21.4142 6.58579C20.8284 6 19.8856 6 18 6H9.5C6.21252 6 4.56878 6 3.46243 6.90796C3.25989 7.07418 3.07418 7.25989 2.90796 7.46243Z" fill="#596380"/>
</svg>
