<svg width="24" height="24" viewBox="0 0 24 24" fill="none" xmlns="http://www.w3.org/2000/svg">
<g clip-path="url(#clip0_1_361)">
<path fill-rule="evenodd" clip-rule="evenodd" d="M3.59961 4.81924C3.59961 3.85941 3.96836 2.93889 4.62474 2.26019C5.28111 1.58149 6.17135 1.2002 7.09961 1.2002L19.3496 1.2002C19.6281 1.2002 19.8952 1.31458 20.0921 1.51819C20.289 1.7218 20.3996 1.99796 20.3996 2.28591V20.3811C20.3996 20.6691 20.289 20.9453 20.0921 21.1489C19.8952 21.3525 19.6281 21.4669 19.3496 21.4669H15.8496C15.5711 21.4669 15.3041 21.3525 15.1071 21.1489C14.9102 20.9453 14.7996 20.6691 14.7996 20.3811C14.7996 20.0932 14.9102 19.817 15.1071 19.6134C15.3041 19.4098 15.5711 19.2954 15.8496 19.2954H18.2996V16.4002H7.09961C6.82393 16.4002 6.55439 16.4844 6.3248 16.6422C6.09521 16.8 5.91579 17.0244 5.80904 17.2873C5.70228 17.5501 5.67295 17.8396 5.72471 18.1196C5.77647 18.3996 5.90703 18.6576 6.10001 18.8611C6.29495 19.0669 6.40284 19.3444 6.39995 19.6324C6.39706 19.9205 6.28363 20.1955 6.08461 20.3971C5.88559 20.5986 5.61729 20.7102 5.33872 20.7072C5.06016 20.7042 4.79415 20.5869 4.59921 20.3811C3.95761 19.7049 3.59862 18.7951 3.59961 17.8478V4.81924ZM18.2996 3.37162V14.2288H7.09961C6.60121 14.2288 6.12801 14.3359 5.69961 14.5299V4.81924C5.69961 4.43531 5.84711 4.0671 6.10966 3.79562C6.37221 3.52414 6.72831 3.37162 7.09961 3.37162H18.2996ZM7.79961 18.9335V23.6383C7.79961 23.7055 7.81771 23.7714 7.85188 23.8286C7.88605 23.8857 7.93495 23.9319 7.99309 23.962C8.05122 23.992 8.11631 24.0048 8.18104 23.9987C8.24578 23.9927 8.30761 23.9681 8.35961 23.9278L10.3896 22.3543C10.4502 22.3073 10.5239 22.2819 10.5996 22.2819C10.6753 22.2819 10.749 22.3073 10.8096 22.3543L12.8396 23.9278C12.8916 23.9681 12.9534 23.9927 13.0182 23.9987C13.0829 24.0048 13.148 23.992 13.2061 23.962C13.2643 23.9319 13.3132 23.8857 13.3473 23.8286C13.3815 23.7714 13.3996 23.7055 13.3996 23.6383V18.9335C13.3996 18.8375 13.3627 18.7455 13.2971 18.6776C13.2315 18.6098 13.1424 18.5716 13.0496 18.5716H8.14961C8.05678 18.5716 7.96776 18.6098 7.90212 18.6776C7.83649 18.7455 7.79961 18.8375 7.79961 18.9335Z" fill="#596380"/>
<path d="M7.79961 23.6383V18.9335C7.79961 18.8375 7.83649 18.7455 7.90212 18.6776C7.96776 18.6098 8.05678 18.5716 8.14961 18.5716H13.0496C13.1424 18.5716 13.2315 18.6098 13.2971 18.6776C13.3627 18.7455 13.3996 18.8375 13.3996 18.9335V23.6383C13.3996 23.7055 13.3815 23.7714 13.3473 23.8286C13.3132 23.8857 13.2643 23.9319 13.2061 23.962C13.148 23.992 13.0829 24.0048 13.0182 23.9987C12.9534 23.9927 12.8916 23.9681 12.8396 23.9278L10.8096 22.3543C10.749 22.3073 10.6753 22.2819 10.5996 22.2819C10.5239 22.2819 10.4502 22.3073 10.3896 22.3543L8.35961 23.9278C8.30761 23.9681 8.24578 23.9927 8.18104 23.9987C8.11631 24.0048 8.05122 23.992 7.99309 23.962C7.93495 23.9319 7.88605 23.8857 7.85188 23.8286C7.81771 23.7714 7.79961 23.7055 7.79961 23.6383Z" fill="#596380"/>
</g>
<defs>
<clipPath id="clip0_1_361">
<rect width="24" height="24" fill="white"/>
</clipPath>
</defs>
</svg>
