<svg width="24" height="24" viewBox="0 0 24 24" fill="none" xmlns="http://www.w3.org/2000/svg">
<g id="Group 106">
<path id="Vector" d="M12 24C18.6275 24 24 18.6274 24 12C24 5.37258 18.6275 0 12 0C5.37259 0 0 5.37258 0 12C0 18.6274 5.37259 24 12 24Z" fill="#596380"/>
<path id="Vector_2" d="M8.05142 12.8635H10.1394V17.7235C10.1394 18.4435 11.0274 18.7795 11.5074 18.2395L16.6194 12.4315C17.0634 11.9275 16.7034 11.1355 16.0314 11.1355H13.9434V6.27551C13.9434 5.55551 13.0554 5.21951 12.5754 5.75951L7.46342 11.5675C7.01942 12.0715 7.37942 12.8635 8.05142 12.8635Z" fill="#31384B"/>
</g>
</svg>
