<svg width="33" height="32" viewBox="0 0 33 32" fill="none" xmlns="http://www.w3.org/2000/svg">
<path fill-rule="evenodd" clip-rule="evenodd" d="M17.9265 17.333H24.5932V19.9997H20.5932V22.6663H17.9265V17.333Z" fill="white"/>
<path fill-rule="evenodd" clip-rule="evenodd" d="M25.9272 26.6667C26.6636 26.6667 27.2605 26.0697 27.2605 25.3333V24H29.9272V25.3333C29.9272 27.5425 28.1364 29.3333 25.9272 29.3333H23.2605V26.6667H25.9272Z" fill="white"/>
<path fill-rule="evenodd" clip-rule="evenodd" d="M20.5932 25.333V29.333H17.9265V25.333H20.5932Z" fill="white"/>
<path fill-rule="evenodd" clip-rule="evenodd" d="M20.5932 25.333V29.333H17.9265V25.333H20.5932Z" fill="white"/>
<path fill-rule="evenodd" clip-rule="evenodd" d="M29.9272 17.333V21.333H27.2605V17.333H29.9272Z" fill="white"/>
<path fill-rule="evenodd" clip-rule="evenodd" d="M10.5932 7.33301H7.92651V9.99967H10.5932V7.33301Z" fill="white"/>
<path fill-rule="evenodd" clip-rule="evenodd" d="M25.2602 7.33301H22.5935V9.99967H25.2602V7.33301Z" fill="white"/>
<path fill-rule="evenodd" clip-rule="evenodd" d="M25.2602 22H22.5935V24.6667H25.2602V22Z" fill="white"/>
<path fill-rule="evenodd" clip-rule="evenodd" d="M10.5932 22H7.92651V24.6667H10.5932V22Z" fill="white"/>
<path fill-rule="evenodd" clip-rule="evenodd" d="M12.5938 5.33366H5.92716V12.0003H12.5938V5.33366ZM5.92716 2.66699C4.4544 2.66699 3.2605 3.8609 3.2605 5.33366V14.667H15.2605V2.66699H5.92716Z" fill="white"/>
<path fill-rule="evenodd" clip-rule="evenodd" d="M12.5938 19.9997H5.92716V26.6663H12.5938V19.9997ZM3.2605 17.333V26.6663C3.2605 28.1391 4.4544 29.333 5.92716 29.333H15.2605V17.333H3.2605Z" fill="white"/>
<path fill-rule="evenodd" clip-rule="evenodd" d="M27.2598 5.33366H20.5932V12.0003H27.2598V5.33366ZM17.9265 2.66699V14.667H29.9265V5.33366C29.9265 3.8609 28.7326 2.66699 27.2598 2.66699H17.9265Z" fill="white"/>
</svg>
