<svg width="24" height="24" viewBox="0 0 24 24" fill="none" xmlns="http://www.w3.org/2000/svg">
<path opacity="0.4" fill-rule="evenodd" clip-rule="evenodd" d="M9.53976 20.6596L10.3902 16.7352C9.13094 16.3072 8.09728 15.391 7.51473 14.2121L3.54184 15.0828C4.52427 17.7776 6.75784 19.8708 9.53976 20.6596ZM7.16171 10.7338C7.26436 10.3405 7.41371 9.96603 7.60347 9.6167C7.56756 9.6828 7.5331 9.7498 7.50013 9.81767C8.04816 8.6895 9.00793 7.79836 10.184 7.33964L9.33082 3.40251C6.32727 4.33402 3.99705 6.79613 3.25195 9.87702L7.16171 10.7338ZM20.4582 15.0828C19.4757 17.7777 17.2421 19.8709 14.46 20.6597L13.6096 16.7353C14.0696 16.579 14.4995 16.3575 14.8883 16.0819C14.8893 16.0812 14.8904 16.0804 14.8914 16.0797C14.9215 16.0583 14.9514 16.0366 14.981 16.0145C15.6145 15.5434 16.1326 14.926 16.4854 14.2122L20.4582 15.0828ZM20.7482 9.87698L16.8387 10.7338C16.4326 9.1773 15.2953 7.91622 13.8158 7.33939L14.669 3.40234C17.6727 4.33377 20.0031 6.79597 20.7482 9.87698Z" fill="#E9E9EC"/>
<path fill-rule="evenodd" clip-rule="evenodd" d="M14.46 20.6597C13.6781 20.8814 12.8529 21 12 21C11.147 21 10.3217 20.8813 9.53976 20.6596L10.3902 16.7352C10.8954 16.9069 11.4368 17 12 17C12.5631 17 13.1045 16.9069 13.6096 16.7353L14.46 20.6597ZM20.4582 15.0828C20.8087 14.1212 21 13.0829 21 12C21 11.2687 20.9128 10.5577 20.7482 9.87698L16.8387 10.7338C16.4326 9.1773 15.2953 7.91622 13.8158 7.33939L14.669 3.40234C13.8257 3.14084 12.9293 3 12 3C7.02944 3 3 7.02944 3 12C3 13.0829 3.19126 14.1212 3.54184 15.0828L7.51473 14.2121C7.18518 13.5452 7 12.7942 7 12C7 11.5626 7.05618 11.1382 7.16171 10.7338L3.25195 9.87702C3.99705 6.79613 6.32727 4.33402 9.33082 3.40251L10.184 7.33964C8.99516 7.80334 8.02735 8.7089 7.48243 9.85449C8.28544 8.16667 10.0065 7 12 7C14.7614 7 17 9.23858 17 12C17 13.6854 16.1661 15.1761 14.8883 16.0819C15.564 15.603 16.1156 14.9605 16.4854 14.2122L20.4582 15.0828Z" fill="#596380"/>
</svg>
