<svg width="29" height="24" viewBox="0 0 29 24" fill="none" xmlns="http://www.w3.org/2000/svg">
<g id="Group 105">
<path id="Vector" opacity="0.4" fill-rule="evenodd" clip-rule="evenodd" d="M6.7891 0C3.06116 0 0.0390625 3.0221 0.0390625 6.75004C0.0390625 10.0946 2.47166 12.8711 5.66409 13.4068V10.5001C5.66409 9.87875 6.16778 9.37505 6.7891 9.37505C7.41043 9.37505 7.91411 9.87875 7.91411 10.5001V13.4068C11.1066 12.8711 13.5391 10.0946 13.5391 6.75004C13.5391 3.0221 10.5171 0 6.7891 0Z" fill="#596380"/>
<path id="Vector_2" d="M11.2889 17.251L6.82595 21.7332L2.3623 17.251" stroke="#596380" stroke-width="1.5" stroke-linecap="round" stroke-linejoin="round"/>
<path id="Vector_3" d="M6.78906 21.6136V10.5008" stroke="#596380" stroke-width="1.5" stroke-linecap="round" stroke-linejoin="round"/>
<path id="Vector_4" opacity="0.4" fill-rule="evenodd" clip-rule="evenodd" d="M20.6648 10.5938C17.4719 11.1291 15.0391 13.9058 15.0391 17.2506C15.0391 20.9786 18.0611 24.0007 21.7891 24.0007C25.5171 24.0007 28.5391 20.9786 28.5391 17.2506C28.5391 13.9062 26.1069 11.13 22.9149 10.594V13.5006C22.9149 14.1219 22.4112 14.6256 21.7899 14.6256C21.1685 14.6256 20.6648 14.1219 20.6648 13.5006V10.5938Z" fill="#596380"/>
<path id="Vector_5" d="M17.3623 6.74977L21.8251 2.26759L26.2889 6.74977" stroke="#596380" stroke-width="1.5" stroke-linecap="round" stroke-linejoin="round"/>
<path id="Vector_6" d="M21.79 2.3877V13.5005" stroke="#596380" stroke-width="1.5" stroke-linecap="round" stroke-linejoin="round"/>
</g>
</svg>
