<svg width="24" height="24" viewBox="0 0 24 24" fill="none" xmlns="http://www.w3.org/2000/svg">
<g id="Group 103">
<path id="Vector" opacity="0.8" d="M7.43526 23.7932C11.5416 23.7932 14.8705 20.4643 14.8705 16.3579C14.8705 12.2516 11.5416 8.92268 7.43526 8.92268C3.32888 8.92268 0 12.2516 0 16.3579C0 20.4643 3.32888 23.7932 7.43526 23.7932Z" fill="#E9E9EC"/>
<path id="Vector_2" opacity="0.4" d="M16.3571 14.8705C20.4635 14.8705 23.7924 11.5416 23.7924 7.43526C23.7924 3.32888 20.4635 0 16.3571 0C12.2508 0 8.92188 3.32888 8.92188 7.43526C8.92188 11.5416 12.2508 14.8705 16.3571 14.8705Z" fill="#E9E9EC"/>
<path id="Vector_3" d="M0.325978 1.78299C0.088957 0.898405 0.898405 0.088957 1.78299 0.325978L6.56226 1.60658C7.44685 1.8436 7.74313 2.94933 7.09556 3.5969L3.59688 7.09558C2.94933 7.74313 1.84361 7.44685 1.60658 6.56228L0.325978 1.78299Z" fill="#596380"/>
<path id="Vector_4" d="M23.9586 22.5016C24.1956 23.3862 23.3862 24.1957 22.5016 23.9586L17.7223 22.678C16.8377 22.4409 16.5415 21.3353 17.1891 20.6877L20.6877 17.189C21.3353 16.5415 22.441 16.8377 22.6779 17.7224L23.9586 22.5016Z" fill="#596380"/>
</g>
</svg>
