<svg width="27" height="24" viewBox="0 0 27 24" fill="none" xmlns="http://www.w3.org/2000/svg">
<g id="Group 102">
<path id="Vector" d="M14.3242 1.22853L7.80273 4.4893L10.1767 6.07191C10.9332 6.57626 11.3115 6.82843 11.7434 6.93811C12.1753 7.04778 12.628 7.00663 13.5335 6.92431L17.673 6.548C18.263 6.49436 18.5581 6.46753 18.8373 6.37638C19.1166 6.28523 19.3706 6.13281 19.8786 5.82797L22.1097 4.4893L20.813 2.76029C19.5675 1.09959 18.9446 0.269235 18.027 0.052601C17.1094 -0.16402 16.181 0.300164 14.3242 1.22853Z" fill="white"/>
<path id="Vector_2" d="M0 14.2451C0 9.96925 -7.75239e-08 7.83137 1.18092 6.39241C1.39712 6.12898 1.63866 5.88744 1.90209 5.67125C3.34105 4.49033 5.47895 4.49033 9.75476 4.49033H20.8102C23.2626 4.49033 24.4889 4.49033 25.2508 5.25223C26.0127 6.01411 26.0127 7.24036 26.0127 9.69287V18.7973C26.0127 21.2498 26.0127 22.476 25.2508 23.2379C24.4889 23.9999 23.2626 23.9999 20.8102 23.9999H9.75476C5.47895 23.9999 3.34105 23.9998 1.90209 22.8189C1.63866 22.6027 1.39712 22.3612 1.18092 22.0978C-7.75239e-08 20.6588 0 18.5209 0 14.2451Z" fill="#596380"/>
<path id="Vector_3" d="M18.207 14.2448C18.207 13.6403 18.207 13.3382 18.257 13.0869C18.4622 12.055 19.2689 11.2483 20.3008 11.0431C20.5521 10.9932 20.8542 10.9932 21.4586 10.9932H26.0108V17.4963H21.4586C20.8542 17.4963 20.5521 17.4963 20.3008 17.4464C19.2689 17.2412 18.4622 16.4345 18.257 15.4026C18.207 15.1513 18.207 14.8492 18.207 14.2448Z" fill="white"/>
<path id="Vector_4" d="M6.17651 10.0174H10.7287" stroke="white" stroke-width="1.5" stroke-linecap="round" stroke-linejoin="round"/>
</g>
</svg>
