<svg width="24" height="24" viewBox="0 0 24 24" fill="none" xmlns="http://www.w3.org/2000/svg">
<path d="M23.7832 12C23.7832 18.6274 18.5274 24 12.0441 24C5.56072 24 0.304943 18.6274 0.304943 12C0.304943 5.37261 5.56072 0 12.0441 0C18.5274 0 23.7832 5.37261 23.7832 12Z" fill="white"/>
<path d="M1.3029 11.9544C1.2801 18.015 6.07418 22.9534 12.004 22.9778C17.9338 23.0021 22.7649 18.1032 22.7877 12.0427C22.8105 5.98214 18.0164 1.04368 12.0866 1.01933C12.0759 1.01928 12.0544 1.0192 12.0436 1.01915C6.13524 1.01685 1.32567 5.90488 1.3029 11.9544Z" fill="url(#paint0_radial_1_590)"/>
<path d="M18.1149 11.2484C18.1149 11.2484 18.7026 9.90925 18.8406 8.29566C18.9787 6.68206 19.0972 5.3693 18.5623 4.91896C18.0275 4.46862 16.6895 5.57589 16.6895 5.57589C16.6895 5.57589 15.4898 6.56316 14.7212 7.56519C14.0016 7.29081 13.0761 7.1238 12.066 7.11972C11.0558 7.11569 10.1291 7.27524 9.40735 7.54384C8.64652 6.53568 7.45449 5.53878 7.45449 5.53878C7.45449 5.53878 6.12503 4.42078 5.58674 4.86682C5.04846 5.31285 5.15684 6.62653 5.28247 8.24119C5.40813 9.85585 5.98551 11.1996 5.98551 11.1996C4.96252 13.308 4.91594 15.0505 4.96308 15.5521C5.01022 16.0538 5.29673 17.2961 7.14337 18.6669C8.99004 20.0377 10.7138 20.6746 11.9801 20.6797C11.9916 20.6798 12.0028 20.6791 12.0139 20.6779C12.0249 20.6793 12.0361 20.68 12.0476 20.68C13.3138 20.6851 15.0424 20.0621 16.8996 18.7061C18.7567 17.3502 19.0528 16.1102 19.1038 15.6089C19.1548 15.1077 19.1216 13.3649 18.1149 11.2484Z" fill="#0D0A16" stroke="black" stroke-width="0.00922477" stroke-miterlimit="10"/>
<path d="M18.9003 15.2702V15.2701C18.9006 15.0109 18.8806 14.6055 18.7913 14.0724C18.7221 13.6595 18.6219 13.2379 18.4934 12.8192C18.3411 12.323 18.1479 11.8273 17.9189 11.346L17.8746 11.2527L17.916 11.1581C17.9175 11.1548 18.0616 10.8238 18.2203 10.3041C18.3132 9.99971 18.3929 9.69104 18.4571 9.38663C18.537 9.00754 18.5931 8.6342 18.6236 8.27688L18.628 8.22577C18.6941 7.45378 18.7565 6.72457 18.7355 6.16157C18.7145 5.60021 18.6125 5.24997 18.4237 5.09095C18.3784 5.05289 18.3165 5.03424 18.2343 5.0339C18.1218 5.03344 17.9811 5.06754 17.8159 5.13529C17.6734 5.19368 17.5156 5.27612 17.3469 5.3804C17.0531 5.56192 16.8278 5.74727 16.8256 5.74906L16.8252 5.74944C16.8222 5.75188 16.5242 5.99775 16.1376 6.36123C15.4951 6.96507 15.1055 7.42409 14.8917 7.70281L14.7936 7.83062L14.6447 7.77383C14.2927 7.63963 13.8962 7.53427 13.4662 7.4607C13.0185 7.38416 12.5469 7.34435 12.0646 7.34241C11.5822 7.34047 11.1104 7.37647 10.6621 7.44944C10.2316 7.51955 9.83425 7.6217 9.48116 7.75313L9.33182 7.80866L9.23475 7.68009C8.85135 7.17201 8.35127 6.66466 7.99926 6.32854C7.61542 5.96194 7.3193 5.7137 7.31636 5.71123L7.31595 5.71092C7.31372 5.70906 7.08994 5.52188 6.79751 5.338C6.62955 5.23238 6.47243 5.14865 6.33045 5.08912C6.16577 5.02008 6.02521 4.98484 5.91277 4.98438C5.83056 4.98407 5.76852 5.00223 5.72299 5.03991C5.53291 5.19744 5.42821 5.54681 5.40297 6.10798C5.37761 6.67082 5.43443 7.40049 5.49456 8.17301L5.49854 8.22413C5.52636 8.58167 5.57949 8.95547 5.65656 9.33521C5.71841 9.64011 5.7957 9.9494 5.88629 10.2545C6.04093 10.7755 6.18252 11.1076 6.1839 11.1108L6.22475 11.2059L6.17962 11.2988C5.94699 11.7783 5.74991 12.2723 5.59382 12.7673C5.46209 13.185 5.35866 13.6058 5.28631 14.0182C5.19338 14.5479 5.16999 14.9518 5.1681 15.2111C5.16743 15.3031 5.16951 15.3769 5.17208 15.4317C5.17242 15.4379 5.17271 15.444 5.17301 15.4497C5.17383 15.4648 5.17465 15.4781 5.17547 15.4897C5.17577 15.4937 5.17603 15.4975 5.17629 15.5011C5.17725 15.5138 5.17815 15.5239 5.17886 15.5314C5.19122 15.6631 5.22093 15.8365 5.28668 16.0426C5.28832 16.0477 5.28996 16.0528 5.29164 16.058C5.29536 16.0695 5.2992 16.081 5.30314 16.0927C5.3059 16.1008 5.30869 16.1089 5.31156 16.1171C5.319 16.1384 5.32678 16.16 5.33501 16.182C5.33892 16.1924 5.34294 16.203 5.34708 16.2136C5.35065 16.2228 5.35426 16.2321 5.35799 16.2415C5.41127 16.3754 5.47926 16.5198 5.56594 16.6729C5.922 17.3018 6.49551 17.9125 7.27049 18.4877C7.37702 18.5668 7.48384 18.6439 7.59081 18.7189C7.92949 18.9565 8.26962 19.1733 8.60572 19.3658C8.94269 19.5587 9.27853 19.7289 9.60742 19.8734C9.69168 19.9105 9.77545 19.9458 9.85867 19.9795C10.2509 20.1379 10.6333 20.2589 10.9954 20.3394C11.3449 20.417 11.6763 20.4569 11.9804 20.4582C11.9835 20.4582 11.9865 20.458 11.9896 20.4577L12.0141 20.455L12.0386 20.4579C12.0417 20.4583 12.0447 20.4584 12.0479 20.4584C12.3519 20.4597 12.6837 20.4224 13.0337 20.3475C13.3965 20.2701 13.7799 20.1521 14.1732 19.9968C14.2524 19.9655 14.3321 19.9328 14.4122 19.8984C14.7464 19.7554 15.0879 19.5859 15.4308 19.3932C15.6767 19.255 15.9247 19.1039 16.1729 18.9413C16.1891 18.9308 16.2052 18.9201 16.2214 18.9094C16.2468 18.8926 16.2723 18.8756 16.2977 18.8586C16.4564 18.7521 16.6149 18.6412 16.7728 18.5259C17.1259 18.2681 17.4378 18.0026 17.7068 17.7312C17.7164 17.7216 17.7258 17.7119 17.7352 17.7023C17.7529 17.6843 17.7703 17.6663 17.7875 17.6482C17.8018 17.6333 17.8159 17.6183 17.83 17.6033C17.838 17.5947 17.846 17.5861 17.8539 17.5775C17.8683 17.562 17.8825 17.5464 17.8966 17.5309C17.9195 17.5055 17.942 17.4801 17.9642 17.4547C18.0431 17.3642 18.1173 17.2732 18.1867 17.1816C18.2045 17.1581 18.222 17.1346 18.2391 17.1111C18.2428 17.106 18.2465 17.101 18.2502 17.0959C18.339 16.9731 18.4195 16.8494 18.4913 16.7248C18.5548 16.6147 18.6084 16.509 18.6538 16.4085C18.8094 16.0639 18.8674 15.7802 18.8871 15.5865C18.8911 15.5477 18.9001 15.4405 18.9003 15.2702Z" fill="#EB9B2D"/>
<path d="M18.8871 15.584C18.8617 15.8341 18.7723 16.2347 18.4913 16.7223C18.1303 17.3483 17.5522 17.9543 16.7728 18.5234C16.3265 18.8492 15.8751 19.141 15.4308 19.3907C15.0879 19.5834 14.7464 19.7528 14.4122 19.8959C14.3321 19.9302 14.2524 19.963 14.1732 19.9943C13.7798 20.1495 13.3965 20.2675 13.0337 20.345C12.6837 20.4199 12.3519 20.4571 12.0479 20.4559C12.0447 20.4559 12.0417 20.4557 12.0386 20.4553L12.0141 20.4524L11.9896 20.4551C11.9865 20.4555 11.9835 20.4557 11.9804 20.4556C11.6763 20.4544 11.3449 20.4145 10.9954 20.3368C10.6333 20.2564 10.2508 20.1353 9.85867 19.9769C9.77545 19.9433 9.69167 19.9079 9.60741 19.8709C9.27853 19.7264 8.94268 19.5562 8.60572 19.3633C8.16342 19.11 7.71416 18.8146 7.27049 18.4852C6.49551 17.9099 5.922 17.2993 5.56593 16.6704C5.28862 16.1805 5.20231 15.7793 5.17885 15.5289C5.17513 15.4898 5.16686 15.3812 5.16809 15.2086C5.46931 15.1359 5.78509 15.0979 6.11044 15.0992C7.33516 15.1041 8.42026 15.6657 9.0994 16.5299C9.38997 15.0882 10.5942 14.0099 12.0313 14.0156C13.4684 14.0214 14.6642 15.1093 14.9438 16.5534C15.6295 15.6947 16.7189 15.1418 17.9436 15.1467C18.2744 15.148 18.595 15.1899 18.9003 15.2676C18.9001 15.4379 18.891 15.5452 18.8871 15.584Z" fill="#EAEAE8"/>
<path d="M5.1681 15.2109C5.16683 15.3835 5.17514 15.4921 5.17882 15.5312C5.20232 15.7816 5.28859 16.1828 5.5659 16.6727C5.922 17.3016 6.49548 17.9123 7.27049 18.4875C7.71417 18.8169 8.16343 19.1123 8.60573 19.3656C8.94269 19.5585 9.27854 19.7287 9.60738 19.8732" fill="#EAEAE8"/>
<path d="M18.9002 15.2695C18.9 15.4399 18.8909 15.5471 18.887 15.5859C18.8616 15.8361 18.7722 16.2367 18.4911 16.7243C18.1302 17.3503 17.5521 17.9563 16.7726 18.5253C16.3264 18.8511 15.8749 19.143 15.4307 19.3926C15.0878 19.5854 14.7462 19.7548 14.4121 19.8979" fill="#EAEAE8"/>
<path d="M8.70176 7.9941C7.5016 8.82223 6.79669 9.81059 6.47938 10.3343C6.16176 9.49036 5.76489 7.48998 5.81589 6.68622C5.87549 5.74593 6.37009 5.97112 7.05413 6.46212C7.51596 6.79358 8.05449 7.26015 8.70176 7.9941Z" fill="#E48014"/>
<path d="M15.4073 8.01917C16.601 8.85688 17.2982 9.85084 17.6114 10.3771C17.9356 9.53575 18.3479 7.5385 18.3031 6.73431C18.2508 5.79356 17.7545 6.01483 17.0666 6.50031C16.6022 6.8281 16.0602 7.29038 15.4073 8.01917Z" fill="#E48014"/>
<path d="M8.19593 11.1818C8.19593 11.1818 8.33194 10.6224 8.81583 10.6026C9.29972 10.5828 9.49035 10.8572 9.62655 11.0413C9.76279 11.2254 9.9799 11.7363 9.53231 11.8092C9.08477 11.882 8.36534 11.9332 8.25431 11.8227C8.07548 11.6447 8.19593 11.1818 8.19593 11.1818Z" fill="#FFFFF2"/>
<path d="M15.8885 11.2106C15.8885 11.2106 15.7568 10.6502 15.2731 10.6264C14.7894 10.6027 14.5966 10.8757 14.459 11.0586C14.3214 11.2416 14.1003 11.7508 14.5473 11.8273C14.9943 11.9037 15.7133 11.9607 15.8252 11.8511C16.0054 11.6745 15.8885 11.2106 15.8885 11.2106Z" fill="#FFFFF2"/>
<path d="M7.79308 12.7923C7.79308 12.7923 7.77952 12.3599 8.05613 12.4294C8.33278 12.499 9.81162 13.2732 10.0873 13.5822C10.363 13.8913 10.5901 14.2001 10.3344 14.2115C10.0788 14.2229 9.02324 14.1472 8.44649 13.7872C7.86974 13.4271 7.79028 13.5139 7.79308 12.7923Z" fill="#151110"/>
<path d="M16.2783 12.8291C16.2783 12.8291 16.2951 12.3969 16.018 12.4641C15.7408 12.5315 14.2561 13.2938 13.978 13.6006C13.6999 13.9074 13.4706 14.2144 13.7261 14.2279C13.9816 14.2413 15.0377 14.174 15.6172 13.8187C16.1967 13.4633 16.2755 13.5507 16.2783 12.8291Z" fill="#151110"/>
<path d="M12.9312 16.1239C12.9312 16.1239 12.6313 16.6304 12.0818 16.6629C12.0623 16.6641 12.0425 16.6646 12.0224 16.6645C12.0013 16.6644 11.9805 16.6636 11.96 16.6622C11.4125 16.6236 11.1147 16.1166 11.1147 16.1166C10.8613 15.565 10.985 15.0274 11.1316 14.8942C11.2782 14.7611 11.5945 14.7872 11.5945 14.7872L12.4617 14.7907C12.4617 14.7907 12.7783 14.7671 12.9238 14.9015C13.0693 15.0358 13.1889 15.5743 12.9312 16.1239Z" fill="black"/>
<path d="M13.5519 17.4937C13.503 17.5277 13.2863 17.7259 13.2493 17.8346C13.2124 17.9433 13.1348 18.3256 13.0983 18.3286C13.0618 18.3316 12.9795 18.3592 12.9834 18.1446C12.9861 17.9959 12.9992 17.7847 13.0071 17.6688L11.025 17.6609C11.0319 17.7767 11.0434 17.9881 11.045 18.1368C11.0472 18.3514 10.9651 18.3231 10.9286 18.3199C10.8921 18.3166 10.8175 17.9337 10.7814 17.8247C10.7453 17.7157 10.5301 17.5158 10.4815 17.4814C10.4329 17.4469 10.4181 17.3474 10.4822 17.3103C10.5314 17.2818 10.8227 17.4547 10.9548 17.5362L11.7127 17.5392C11.7281 17.4087 11.8279 17.3038 11.9566 17.2787L11.959 16.6641C11.9794 16.6655 12.0002 16.6663 12.0214 16.6664C12.0414 16.6665 12.0612 16.666 12.0807 16.6648L12.0783 17.2791C12.2069 17.3053 12.3059 17.411 12.3203 17.5416L13.0782 17.5447C13.2108 17.4643 13.5035 17.2937 13.5525 17.3226C13.6163 17.3602 13.6007 17.4597 13.5519 17.4937Z" fill="black"/>
<path d="M12.1398 17.9756L11.8903 17.9746L11.4004 17.9727L11.6003 18.2161L11.753 18.0549L12.0135 18.3639L12.2764 18.0571L12.4279 18.2194L12.6297 17.9776L12.1398 17.9756Z" fill="black"/>
<defs>
<radialGradient id="paint0_radial_1_590" cx="0" cy="0" r="1" gradientUnits="userSpaceOnUse" gradientTransform="translate(12.0453 11.9986) rotate(0.235309) scale(10.7425 10.9793)">
<stop stop-color="#ED807D"/>
<stop offset="1" stop-color="#FF0000"/>
</radialGradient>
</defs>
</svg>
